<svg width="192" height="192" viewBox="0 0 192 192" fill="none" xmlns="http://www.w3.org/2000/svg">
<rect width="192" height="192" rx="96" fill="#0866FF"/>
<path d="M139.586 91.1269V118.091C139.586 134.812 139.586 143.173 136.055 146.827C134.37 148.569 132.245 149.663 129.981 149.954C125.232 150.564 119.688 145.059 108.597 134.047C103.695 129.18 101.244 126.746 98.408 126.105C97.0118 125.789 95.5744 125.789 94.1782 126.105C91.3425 126.746 88.8911 129.18 83.9892 134.047C72.8991 145.059 67.3541 150.564 62.6059 149.954C60.3413 149.663 58.2154 148.569 56.5313 146.827C53 143.173 53 134.812 53 118.091V91.1269C53 67.968 53 56.3888 59.3402 49.1944C65.6802 42 75.8847 42 96.2931 42C116.701 42 126.906 42 133.246 49.1944C139.586 56.3888 139.586 67.968 139.586 91.1269Z" fill="#EBEFFF"/>
</svg>
